<?xml version="1.0" standalone="no"?>
<!DOCTYPE svg PUBLIC "-//W3C//DTD SVG 20010904//EN"
 "http://www.w3.org/TR/2001/REC-SVG-20010904/DTD/svg10.dtd">
<svg version="1.0" xmlns="http://www.w3.org/2000/svg"
 width="300.000000pt" height="300.000000pt" viewBox="0 0 300.000000 300.000000"
 preserveAspectRatio="xMidYMid meet">
<metadata>
Created by potrace 1.11, written by Peter Selinger 2001-2013
</metadata>
<g transform="translate(0.000000,300.000000) scale(0.100000,-0.100000)"
fill="#000000" stroke="none">
<path d="M520 2253 c-14 -2 -47 -11 -75 -20 -309 -97 -490 -404 -419 -714 37
-163 252 -507 518 -826 33 -40 68 -73 78 -73 30 0 224 238 364 448 l76 113 84
-123 c101 -149 318 -424 342 -433 12 -5 30 7 62 42 69 75 226 281 312 408 l76
115 33 -53 c93 -152 378 -517 403 -517 30 0 229 251 378 475 211 318 265 482
223 680 -94 445 -636 634 -987 343 l-47 -39 -63 47 c-164 122 -366 162 -550
108 -69 -21 -176 -77 -225 -119 l-39 -33 -50 39 c-109 88 -257 140 -393 138
-42 -1 -87 -4 -101 -6z m234 -361 c22 -15 50 -47 64 -72 20 -38 23 -56 20
-112 -3 -55 -9 -75 -34 -110 -43 -61 -104 -93 -179 -92 -194 1 -291 220 -161
362 67 75 203 86 290 24z m859 15 c76 -45 112 -115 105 -207 -6 -80 -43 -135
-117 -172 -155 -79 -321 20 -321 192 0 97 52 173 142 207 50 19 140 9 191 -20z
m830 22 c49 -13 115 -73 138 -124 65 -141 -48 -306 -209 -305 -139 1 -241 132
-211 272 9 40 21 61 58 98 65 64 137 84 224 59z"/>
</g>
</svg>
